<svg id="Layer_35" enable-background="new 0 0 64 64" height="512" viewBox="0 0 64 64" width="512" xmlns="http://www.w3.org/2000/svg"><path d="m58 26h-5l-9.63 5.78c-.24.14-.52.22-.8.22-.87 0-1.57-.7-1.57-1.57v-4.43h-6.5c-1.52-3.66-3.71-7.05-6.51-9.97l.01-.01v-10.02c0-2.21 1.79-4 4-4h26c2.21 0 4 1.79 4 4v16c0 2.21-1.79 4-4 4z" fill="#ffeaa7"/><path d="m12 62h-8c-.55 0-1.05-.22-1.41-.59-.37-.36-.59-.86-.59-1.41 0-6.54 3.14-12.35 8-16v14h-2c0 2.21 1.79 4 4 4z" fill="#838f9b"/><path d="m46 60c0 1.1-.9 2-2 2h-8c1.1 0 2.1-.45 2.83-1.17.72-.73 1.17-1.73 1.17-2.83h-2v-14c2.43 1.82 4.43 4.19 5.82 6.92 1.4 2.72 2.18 5.81 2.18 9.08z" fill="#838f9b"/><path d="m38 58h2c0 1.1-.45 2.1-1.17 2.83-.73.72-1.73 1.17-2.83 1.17h-24c-2.21 0-4-1.79-4-4h2z" fill="#ccd1d9"/><path d="m36.97 39.33c.64.71 1.03 1.65 1.03 2.67v2 14h-28v-14-2c0-1.03.39-1.97 1.03-2.68.73-.81 1.79-1.32 2.97-1.32h4.34 11.31 4.35c1.18 0 2.25.51 2.97 1.33z" fill="#e6e9ed"/><circle cx="24" cy="46" fill="#69d6f4" r="2"/><path d="m18.34 38h-4.34c-1.18 0-2.24.51-2.97 1.32-.02-.25-.03-.51-.03-.76 0-2.12.21-4.22.61-6.28.96-.58 2.12-1.23 3.41-1.85-.01.19-.02.38-.02.57 0 2.83 1.3 5.35 3.34 7z" fill="#5b6570"/><path d="m36.39 32.28.61 6.28c0 .26-.01.51-.03.77-.72-.82-1.79-1.33-2.97-1.33h-4.35c2.05-1.65 3.35-4.17 3.35-7 0-.19-.01-.38-.02-.56v-.01c1.29.62 2.46 1.27 3.41 1.85z" fill="#5b6570"/><path d="m15.02 30.43c-1.29.62-2.45 1.27-3.41 1.85.42-2.14 1.05-4.24 1.88-6.25 1.63-3.93 4.03-7.55 7.1-10.62.9-.9 2.13-1.41 3.41-1.41s2.51.51 3.41 1.41c.2.2.41.41.58.62 2.8 2.92 4.99 6.31 6.51 9.97 0 .01.01.02.01.03l1.88 6.25c-.95-.58-2.12-1.23-3.41-1.85-2.69-1.29-5.93-2.43-8.98-2.43s-6.29 1.14-8.98 2.43z" fill="#969faa"/><path d="m32.98 30.44c.01.18.02.37.02.56 0 2.83-1.3 5.35-3.35 7h-11.31c-2.04-1.65-3.34-4.17-3.34-7 0-.19.01-.38.02-.57 2.69-1.29 5.93-2.43 8.98-2.43s6.29 1.14 8.98 2.43z" fill="#f0d0b4"/><path d="m34.34 6.17 7.66 3.83c0 2.21-1.79 4-4 4-3.31 0-6-2.69-6-6v-.38c0-.9.72-1.62 1.62-1.62.25 0 .5.06.72.17z" fill="#ff826e"/><path d="m58 7.62v.38c0 3.31-2.69 6-6 6-2.21 0-4-1.79-4-4l7.66-3.83c.22-.11.47-.17.72-.17.9 0 1.62.72 1.62 1.62z" fill="#ff826e"/><path d="m56.382 5c-.404 0-.809.096-1.171.276l-8.211 4.106v.618c0 2.757 2.243 5 5 5 3.86 0 7-3.14 7-7v-.382c0-1.444-1.174-2.618-2.618-2.618zm.618 3c0 2.757-2.243 5-5 5-1.453 0-2.667-1.038-2.942-2.411l7.047-3.523c.392-.198.895.116.895.552z"/><path d="m43 10v-.618l-8.211-4.105c-.362-.181-.767-.277-1.171-.277-1.444 0-2.618 1.174-2.618 2.618v.382c0 3.86 3.14 7 7 7 2.757 0 5-2.243 5-5zm-5 3c-2.757 0-5-2.243-5-5v-.382c0-.341.277-.618.618-.618.095 0 .191.022.276.065l7.047 3.523c-.274 1.374-1.488 2.412-2.941 2.412z"/><path d="m45 21c-1.654 0-3-1.346-3-3h-2c0 2.757 2.243 5 5 5s5-2.243 5-5h-2c0 1.654-1.346 3-3 3z"/><path d="m58 1h-26c-2.757 0-5 2.243-5 5v7.837c-.897-.542-1.925-.837-3-.837-1.557 0-3.021.606-4.121 1.707-6.371 6.371-9.879 14.84-9.879 23.849 0 .153.012.302.018.453-.63.837-1.018 1.865-1.018 2.991v1.517c-5.087 4.012-8 9.986-8 16.483 0 1.654 1.346 3 3 3h8 24 8c1.654 0 3-1.346 3-3 0-6.497-2.913-12.472-8-16.483v-1.517c0-1.126-.388-2.155-1.019-2.992.006-.151.019-.3.019-.452 0-4.005-.697-7.901-2.027-11.556h4.027v3.434c0 1.415 1.151 2.566 2.566 2.566.464 0 .921-.126 1.32-.366l9.391-5.634h4.723c2.757 0 5-2.243 5-5v-16c0-2.757-2.243-5-5-5zm-36.707 15.121c1.446-1.446 3.968-1.446 5.414 0 3.991 3.991 6.78 8.861 8.203 14.17-3.152-1.686-7.129-3.291-10.91-3.291s-7.758 1.605-10.91 3.291c1.423-5.309 4.212-10.179 8.203-14.17zm-10.293 40.879v-15c0-1.654 1.346-3 3-3h20c1.654 0 3 1.346 3 3v15zm1.508-24.095c.459-.271.981-.565 1.55-.867.187 1.815.866 3.521 1.952 4.962h-2.01c-.701 0-1.366.147-1.972.409.054-1.523.216-3.027.48-4.504zm19.488-1.829c-.022 2.286-1.01 4.419-2.722 5.924h-10.548c-1.712-1.505-2.7-3.638-2.722-5.924 2.423-1.106 5.311-2.076 7.996-2.076s5.573.97 7.996 2.076zm2.004 5.924h-2.009c1.085-1.441 1.764-3.147 1.951-4.962.57.303 1.091.596 1.55.867.264 1.477.426 2.98.48 4.504-.606-.262-1.271-.409-1.972-.409zm-31 23c0-5.33 2.165-10.273 6-13.855v10.855h-2v1c0 1.13.391 2.162 1.026 3h-4.026c-.551 0-1-.449-1-1zm9 1c-1.304 0-2.416-.836-2.829-2h29.657c-.413 1.164-1.525 2-2.829 2zm33-1c0 .551-.449 1-1 1h-4.026c.635-.838 1.026-1.87 1.026-3v-1h-2v-10.856c3.835 3.582 6 8.526 6 13.856zm16-38c0 1.654-1.346 3-3 3h-5.277l-9.865 5.919c-.359.215-.858-.071-.858-.485v-5.434h-6.835c-1.498-3.411-3.567-6.574-6.165-9.37v-9.63c0-1.654 1.346-3 3-3h26c1.654 0 3 1.346 3 3z"/><path d="m57 21h2v2h-2z"/><path d="m57 17h2v2h-2z"/><path d="m24 43c-1.654 0-3 1.346-3 3s1.346 3 3 3 3-1.346 3-3-1.346-3-3-3zm0 4c-.551 0-1-.449-1-1s.449-1 1-1 1 .449 1 1-.449 1-1 1z"/></svg>